<svg version="1.2" xmlns="http://www.w3.org/2000/svg" viewBox="0 0 7 9" width="7" height="9"><defs><clipPath clipPathUnits="userSpaceOnUse" id="cp1"><path d="m-13-269h428v6281h-428z"/></clipPath></defs><style>.a{fill:#f457b0;stroke:#f457b0}</style><g clip-path="url(#cp1)"><path class="a" d="m1.7 4.7q0-0.2 0.2-0.4h-0.1l2.7-2.6q0.1-0.1 0.3-0.1c0.2 0 0.4 0.2 0.4 0.4q0 0.2-0.1 0.3l-2.3 2.4 2.3 2.2q0.1 0.2 0.1 0.4c0 0.2-0.2 0.4-0.4 0.4q-0.2 0-0.3-0.1l-2.7-2.6h0.1q-0.2-0.2-0.2-0.3 0 0 0 0 0 0 0 0z"/></g></svg>