<svg version="1.2" xmlns="http://www.w3.org/2000/svg" viewBox="0 0 12 19" width="12" height="19"><defs><clipPath clipPathUnits="userSpaceOnUse" id="cp1"><path d="m-18-49h428v6281h-428z"/></clipPath></defs><style>.a{fill:#f457b0}</style><g clip-path="url(#cp1)"><path class="a" d="m1 10c0-0.4 0.2-0.7 0.4-0.9l7.7-7.7c0.2-0.3 0.6-0.4 0.9-0.4 0.7 0 1.3 0.6 1.3 1.3 0 0.3-0.2 0.6-0.4 0.9l-6.8 6.8 6.7 6.7c0.3 0.3 0.5 0.6 0.5 1 0 0.7-0.6 1.3-1.3 1.3-0.3 0-0.7-0.1-0.9-0.4l-7.7-7.7c-0.2-0.2-0.4-0.5-0.4-0.9q0 0 0 0 0 0 0 0z"/></g></svg>