<svg version="1.2" xmlns="http://www.w3.org/2000/svg" viewBox="0 0 23 23" width="23" height="23"><defs><clipPath clipPathUnits="userSpaceOnUse" id="cp1"><path d="m-384-48h428v6281h-428z"/></clipPath></defs><style>.a{fill:#727c8e;stroke:#727c8e;stroke-width:.4}</style><g clip-path="url(#cp1)"><path fill-rule="evenodd" class="a" d="m21.6 4.8v8.6c0 0.4-0.3 0.7-0.7 0.7h-10.7l1 2.2h7.8c1.3 0 2.4 1.1 2.4 2.4 0 1.3-1.1 2.3-2.4 2.3-1.3 0-2.3-1-2.3-2.3q0-0.5 0.2-0.9h-2.6q0.2 0.4 0.2 0.9c0 1.3-1 2.3-2.3 2.3-1.3 0-2.3-1-2.3-2.3q0-0.7 0.3-1.2l-6.2-14.5-2.5-0.6c-0.3-0.1-0.6-0.5-0.5-0.9 0.1-0.3 0.5-0.6 0.9-0.5l2.7 0.7c0.3 0 0.4 0.2 0.5 0.4l0.9 2h14.9c0.4 0 0.7 0.3 0.7 0.7zm-3.5 13.9c0 0.5 0.4 0.9 0.9 0.9 0.5 0 0.9-0.4 0.9-0.9 0-0.5-0.4-1-0.9-1-0.5 0-0.9 0.5-0.9 1zm-6.8 0c0 0.5 0.4 0.9 0.9 0.9 0.5 0 0.9-0.4 0.9-0.9 0-0.5-0.4-1-0.9-1-0.5 0-0.9 0.5-0.9 1zm8.9-13.2h-13.6l3 7.2h10.6v-2.9h-4.7c-0.4 0-0.7-0.3-0.7-0.7 0-0.4 0.3-0.7 0.7-0.7h4.7z"/></g></svg>