<svg version="1.2" xmlns="http://www.w3.org/2000/svg" viewBox="0 0 58 57" width="58" height="57"><defs><clipPath clipPathUnits="userSpaceOnUse" id="cp1"><path d="m-236-432h428v6281h-428z"/></clipPath><filter x="-50%" y="-50%" width="200%" height="200%" id="f1" ><feDropShadow dx="-1.8369701987210297e-16" dy="3" stdDeviation="5" flood-color="#000000" flood-opacity=".2"/></filter></defs><style>.a{fill:#ffeef8;stroke:#f457b0;stroke-width:2}.b{filter:url(#f1);fill:#f457b0}</style><g clip-path="url(#cp1)"><path class="a" d="m29 49c-12.2 0-22-9.8-22-22 0-12.2 9.8-22 22-22 12.2 0 22 9.8 22 22 0 12.2-9.8 22-22 22z"/><path fill-rule="evenodd" class="b" d="m16 36c0.8 0 1.4 0.6 1.4 1.4 0 0.8-0.6 1.4-1.4 1.4-0.7 0-1.3-0.6-1.3-1.4 0-0.8 0.6-1.4 1.3-1.4zm27.8-1.8q0 0 0 0.1v4.1q0 0.2-0.2 0.4-0.1 0.1-0.3 0.1h-7.6c-0.3 0-0.5-0.2-0.5-0.5v-4.1q0-0.1 0-0.1-0.2-0.1-0.3-0.2-0.3-0.3-0.3-0.7v-0.4q0 0 0 0l0.7-2.1c0-0.2 0.2-0.3 0.4-0.3h7.5c0.2 0 0.4 0.1 0.4 0.3l0.7 2.1q0.1 0 0.1 0v0.4q0 0.4-0.3 0.7-0.1 0.1-0.3 0.2zm-16.6 4.4c0.1-0.1 0.4-0.1 0.6-0.1q0.3 0.1 0.5 0.2 0.3 0 0.6 0.1 0.1 0 0.2 0.1 0.2 0.1 0.3 0.3 0.1 0.2 0.1 0.4-0.1 0.2-0.2 0.3-0.1 0.2-0.3 0.3-0.2 0.1-0.4 0-0.3 0-0.6-0.1-0.3-0.1-0.6-0.1-0.1-0.1-0.3-0.1-0.1-0.1-0.1-0.2c-0.2-0.2-0.2-0.4-0.1-0.6q0-0.2 0.1-0.3 0-0.1 0.2-0.2zm4.4 0.4q0.2-0.2 0.4-0.2 0.3 0 0.6 0 0.2 0 0.5-0.1 0.1 0 0.2 0 0 0 0.1 0.1 0.3 0 0.5 0.3 0.1 0.2 0.1 0.4 0 0.2-0.1 0.4-0.2 0.3-0.5 0.3-0.3 0.1-0.7 0.1-0.3 0-0.6 0-0.1 0-0.2 0-0.3-0.1-0.4-0.2-0.2-0.2-0.2-0.5 0-0.1 0-0.2 0.1-0.2 0.3-0.4zm7-0.6h1.7v-2.2h-1.7zm4.7-4.2q0 0 0 0-0.2 0-0.3-0.1-0.2 0-0.4-0.2-0.1-0.1-0.2-0.2-0.1 0.1-0.2 0.2c-0.4 0.4-1.1 0.4-1.6 0q-0.1-0.1-0.2-0.2 0 0.1-0.1 0.2c-0.5 0.4-1.2 0.4-1.7 0q-0.1-0.1-0.1-0.2-0.1 0.1-0.2 0.2c-0.5 0.4-1.2 0.4-1.6 0q-0.1-0.1-0.2-0.2-0.1 0.1-0.2 0.2-0.2 0.2-0.5 0.3h-0.2q0 0 0 0v4.2q0 0 0 0 0.1 0 0.1 0h2.4v-2.4q0-0.2 0.1-0.3 0.1-0.1 0.3-0.1h1.9c0.2 0 0.4 0.2 0.4 0.4v2.4h2.4q0 0 0 0 0 0 0 0v-4.2zm-20.9-12.5c-0.1 0.1-0.1 0.2-0.2 0.3-0.1 0.1-0.4 0.4-0.5 0.6q-0.1 0.1-0.3 0.2-0.2 0.1-0.4 0c-0.3 0-0.5-0.2-0.6-0.4q-0.1-0.2 0-0.5 0-0.1 0.1-0.2c0.1-0.2 0.4-0.5 0.5-0.7 0.2-0.2 0.2-0.2 0.3-0.3l0.1-0.1h-0.4c-0.3 0-0.6-0.3-0.5-0.6 0-0.4 0.3-0.6 0.6-0.6l2 0.2q0.2 0 0.4 0.2 0.1 0.2 0.1 0.4v1.9c0 0.2-0.1 0.4-0.3 0.6-0.2 0.1-0.4 0.1-0.6 0-0.2-0.2-0.3-0.4-0.3-0.6 0 0 0-0.4 0-0.4zm2.6-0.7c0-1.4 0-2.3 1-2.9 0.5-0.3 1.9-0.4 2.6-0.8q0.1-0.3 0.2-0.7-0.3-0.4-0.6-0.8l-0.5-0.7q-0.2-0.3-0.3-0.7 0-0.2 0.1-0.3 0.1-0.1 0.2-0.2 0 0 0.1-0.1-0.1-0.7 0-1.4 0-0.2 0-0.3c0.2-0.7 0.8-1.2 1.4-1.4 0.4-0.1 0.2-0.4 0.6-0.4 0.7 0.1 1.9 0.6 2.3 1.1 0.6 0.7 0.5 1.6 0.5 2.5 0.1 0 0.2 0.1 0.2 0.3q0.1 0.3-0.1 0.6 0 0 0 0.1l-0.6 0.8q-0.3 0.6-0.7 1v0.1q0 0 0 0.1 0.2 0.2 0.4 0.4c0.6 0.4 2 0.5 2.5 0.8 1.1 0.7 0.9 1.6 1 2.9zm3.7-3.4c0.7 0.8 2.2 0.6 2.8 0q-0.2-0.3-0.4-0.5 0-0.1-0.1-0.2-0.4 0.3-0.9 0.3c-0.4 0-0.8-0.1-1.1-0.4q-0.1 0.4-0.3 0.8 0 0 0 0zm-0.7-3.5c-0.2 0-0.3 0-0.3 0.2q0 0.4 0.2 0.6l0.5 0.8q0.3 0.4 0.7 0.8c0.3 0.3 0.6 0.4 1 0.4 0.4 0 0.7-0.1 1-0.4q0.4-0.4 0.7-0.9l0.6-0.9q0.1-0.2 0.1-0.5c0-0.1-0.3-0.1-0.4-0.1q-0.1 0-0.1 0l0.2-0.8c-1.5 0.2-2.6-0.9-4.1-0.2l0.1 1q-0.1 0-0.2 0zm13.9 13c0.2-0.3 0.6-0.3 0.8-0.1 0.3 0.2 0.3 0.6 0.1 0.8l-1.2 1.5c-0.2 0.3-0.5 0.3-0.8 0.2l-1.6-1.1c-0.3-0.2-0.4-0.6-0.2-0.8 0.2-0.3 0.6-0.4 0.9-0.2l0.3 0.2q0-0.1 0-0.2c0-0.2 0-0.1 0-0.3-0.1-0.1-0.1-0.5-0.2-0.6q0-0.3 0.1-0.5 0.1-0.2 0.3-0.3 0.1-0.1 0.2-0.1 0.3 0 0.5 0.1 0.2 0.1 0.3 0.3 0.1 0.1 0.1 0.2c0 0.2 0.1 0.6 0.1 0.8 0 0.1 0 0.1 0.1 0.3l0.2-0.3zm-4.9-6.5c-0.7-0.7 0.3-1.8 1-1.1 0.2 0.2 0.2 0.2 0.3 0.3q0.2 0.3 0.4 0.5c0.2 0.2 0.3 0.5 0.2 0.7q-0.1 0.2-0.3 0.3-0.1 0.1-0.2 0.2-0.3 0.1-0.5 0-0.2-0.1-0.3-0.2-0.2-0.2-0.4-0.4c-0.1-0.2-0.1-0.2-0.2-0.3zm2 2.2q0-0.3 0.2-0.5 0.1 0 0.2-0.1 0.2-0.1 0.4-0.1 0.3 0.1 0.4 0.3 0.1 0 0.2 0.1 0.1 0.3 0.2 0.6 0.2 0.3 0.3 0.5 0.1 0.3 0 0.6c-0.1 0.3-0.3 0.5-0.6 0.5q-0.3 0-0.6-0.2 0-0.1-0.1-0.1 0-0.1-0.1-0.2-0.1-0.2-0.2-0.5-0.1-0.2-0.2-0.5-0.2-0.2-0.1-0.4zm-19.5 4.8q0.1 0.2 0.1 0.5 0 0.2-0.1 0.5 0 0.1 0 0.2c0 1-1.5 1-1.5 0 0-0.2 0-0.1 0.1-0.3q0-0.3 0-0.6 0-0.1 0.1-0.2 0.1-0.2 0.3-0.3 0.2-0.2 0.4-0.1 0.1 0 0.2 0 0.3 0.1 0.4 0.3zm0.9-3.5q0.1 0.2 0 0.4-0.1 0.3-0.2 0.5c-0.1 0.2-0.2 0.5-0.3 0.7q0 0.1-0.1 0.2 0 0-0.1 0.1-0.2 0.2-0.5 0.2-0.2 0-0.4-0.1c-0.3-0.2-0.4-0.6-0.3-0.9 0.1-0.2 0.2-0.5 0.3-0.7q0.1-0.3 0.2-0.6 0.1-0.1 0.2-0.2c0.2-0.2 0.5-0.3 0.8-0.2 0.3 0.1 0.4 0.3 0.5 0.6zm4.8 13.7q0 0-0.1-0.1-0.1 0-0.1-0.1 0-0.1 0.1-0.1 0.1-0.1 0.1-0.1h0.5q0.2 0 0.3-0.1 0.1-0.1 0.1-0.3v-5.6q0-0.2-0.1-0.3-0.1-0.1-0.3-0.1h-6.3c-0.2 0-0.4 0.2-0.4 0.4v6h1.7c0.1 0 0.2 0.1 0.2 0.2 0 0.1-0.1 0.2-0.2 0.2h-1.9c-0.1 0-0.2-0.1-0.2-0.2v-0.2h-0.9c-0.1-2.1-3.2-2.4-3.5 0h-0.7l0.2-2.2 2.2-0.9 0.9-1.9h1.8v-1c0-0.5 0.4-0.8 0.8-0.8h6.3q0.3 0 0.5 0.2 0.3 0.2 0.3 0.5v5.7q0 0.3-0.3 0.5-0.2 0.3-0.5 0.3zm-4.4-6.2h3.5q0.2 0 0.3 0.1 0.2 0.1 0.2 0.3v2.7c0 0.2-0.2 0.4-0.5 0.4h-3.5q-0.2 0-0.4-0.1-0.1-0.1-0.1-0.3v-2.7c0-0.2 0.2-0.4 0.5-0.4zm2.2 4.3c0.8 0 1.5 0.7 1.5 1.5 0 0.9-0.7 1.6-1.5 1.6-0.9 0-1.6-0.7-1.6-1.6 0-0.8 0.7-1.5 1.6-1.5zm0 1c-0.3 0-0.5 0.2-0.6 0.5 0 0.3 0.3 0.6 0.6 0.6 0.3 0 0.5-0.3 0.5-0.6 0-0.3-0.2-0.5-0.5-0.5zm-1.1-4.9v1.9l0.6-0.4 0.7 0.4v-1.9h-1.3zm-4.7 1l-0.6 1.3h1.8v-1.4h-1.2zm-1.8 4.5c0 0.3 0.2 0.5 0.5 0.5 0.3 0 0.5-0.2 0.5-0.5 0-0.3-0.2-0.5-0.5-0.5-0.3 0-0.5 0.2-0.5 0.5z"/></g></svg>