<svg version="1.2" xmlns="http://www.w3.org/2000/svg" viewBox="0 0 22 22" width="22" height="22"><defs><clipPath clipPathUnits="userSpaceOnUse" id="cp1"><path d="m-349-50h428v6281h-428z"/></clipPath></defs><style>.a{fill:#727c8e}</style><g clip-path="url(#cp1)"><path fill-rule="evenodd" class="a" d="m10.9 3.5c1.2-1.3 2.2-2.5 4.3-2.7 1.2-0.2 2.4 0.1 3.4 0.6 0.9 0.5 1.7 1.2 2.3 2 0.6 0.8 1 1.8 1.1 2.9 0.1 1.1-0.1 2.2-0.6 3.3-0.3 0.7-0.8 1.4-1.3 2.1-0.5 0.7-1.2 1.4-1.8 2.1-0.9 0.9-1.8 1.9-2.7 2.7q-0.7 0.8-1.3 1.4l-3 3.1-0.4 0.4-0.4-0.4-2.5-2.5q-0.6-0.6-1.4-1.4c-3-2.8-6.5-6.2-6.6-10.4q0-0.1 0-0.3c0-1.6 0.7-3 1.6-4 1-1 2.4-1.5 3.8-1.6q0.2 0 0.3 0c2.5 0 3.7 1.2 5.2 2.7zm0.8 0.9q-0.2 0.2-0.4 0.5l-0.4 0.4-0.4-0.4q-0.2-0.2-0.4-0.4c-1.3-1.4-2.3-2.4-4.4-2.5q-0.1 0-0.2 0.1c-1.2 0-2.3 0.4-3 1.2-0.8 0.8-1.3 1.8-1.3 3.1q0 0.2 0 0.3c0.1 3.6 3.4 6.8 6.2 9.5q0.7 0.7 1.5 1.4l2 2.1 2.5-2.7q0.6-0.6 1.4-1.4c0.8-0.8 1.8-1.7 2.6-2.7 0.7-0.7 1.3-1.4 1.8-2 0.4-0.7 0.9-1.3 1.1-1.8 0.4-0.9 0.6-1.8 0.5-2.7-0.1-0.8-0.4-1.6-0.9-2.2-0.5-0.7-1.1-1.3-1.8-1.6-0.8-0.5-1.8-0.7-2.7-0.6-1.7 0.2-2.6 1.2-3.7 2.4z"/></g></svg>