<svg version="1.2" xmlns="http://www.w3.org/2000/svg" viewBox="0 0 11 10" width="11" height="10"><defs><clipPath clipPathUnits="userSpaceOnUse" id="cp1"><path d="m-185-6063h428v6281h-428z"/></clipPath></defs><style>.a{fill:#ffd401}</style><g clip-path="url(#cp1)"><path class="a" d="m6 0.5l1.3 3 3.3 0.3q0.2 0 0.2 0.2 0.1 0.1-0.1 0.3l-2.5 2.1 0.8 3.3q0 0.1-0.1 0.2 0 0.1-0.1 0.1-0.1 0-0.2-0.1l-2.9-1.6-2.8 1.7q-0.1 0-0.2 0-0.1 0-0.2-0.1 0-0.1 0-0.2l0.7-3.3-2.5-2.1c-0.1-0.1-0.1-0.3 0-0.4q0.1-0.1 0.2-0.1l3.3-0.3 1.3-3q0.1-0.2 0.2-0.2 0.2 0 0.3 0.2z"/></g></svg>